# File created by Blade
# Date/Time:  Thu Jan 22 19:34:22 2015
#---------------------------------------------------------
:version 1.10
:name HOM
:units
  mass 1.0
  length 1.000000
  angle deg
:documentation
     Acclaim Skeleton File
:root
   axis xyz
   order TX TY TZ RX RY RZ
   position 0.000000 0.000000 0.000000
   orientation 0 0 0
:bonedata
   begin
      id 1
      name RightUpLeg_dum
      direction -1.000000 0.000000 0.000000
      length 4.478084
      axis 0.0 0.0 0.0 xyz
   end
   begin
      id 2
      name LeftUpLeg_dum
      direction 1.000000 0.000000 0.000000
      length 4.478084
      axis 0.0 0.0 0.0 xyz
   end
   begin
      id 3
      name Spine_dum
      direction 0.000000 1.000000 0.000000
      length 6.068208
      axis 0.0 0.0 0.0 xyz
   end
   begin
      id 4
      name RightUpLeg
      direction 0.000000 -1.000000 0.000000
      length 16.405774
      axis 0.0 0.0 0.0 xyz
      dof rx ry rz
   end
   begin
      id 5
      name RightLeg
      direction 0.000000 -1.000000 0.000000
      length 14.644143
      axis 0.0 0.0 0.0 xyz
      dof rx ry rz
   end
   begin
      id 6
      name RightFoot
      direction 0.000000 -0.258819 0.965926
      length 5.806150
      axis 15.0 0.0 0.0 xyz
      dof rx ry rz
   end
   begin
      id 7
      name RightToeBase
      direction 0.000000 0.000000 1.000000
      length 2.952750
      axis 0.0 0.0 0.0 xyz
      dof rx ry rz
   end
   begin
      id 8
      name LeftUpLeg
      direction 0.000000 -1.000000 0.000000
      length 16.405774
      axis 0.0 0.0 0.0 xyz
      dof rx ry rz
   end
   begin
      id 9
      name LeftLeg
      direction 0.000000 -1.000000 0.000000
      length 14.644143
      axis 0.0 0.0 0.0 xyz
      dof rx ry rz
   end
   begin
      id 10
      name LeftFoot
      direction 0.000000 -0.258819 0.965926
      length 5.806150
      axis 15.0 0.0 0.0 xyz
      dof rx ry rz
   end
   begin
      id 11
      name LeftToeBase
      direction 0.000000 0.000000 1.000000
      length 2.952750
      axis 0.0 0.0 0.0 xyz
      dof rx ry rz
   end
   begin
      id 12
      name Spine
      direction 0.000000 1.000000 0.000000
      length 0.000000
      axis 0.0 0.0 0.0 xyz
      dof rx ry rz
   end
   begin
      id 13
      name Spine_dum1
      direction 0.000000 1.000000 0.000000
      length 10.013923
      axis 0.0 0.0 0.0 xyz
   end
   begin
      id 14
      name Spine_dum2
      direction 0.000000 1.000000 0.000000
      length 10.013923
      axis 0.0 0.0 0.0 xyz
   end
   begin
      id 15
      name Spine_dum3
      direction 0.000000 1.000000 0.000000
      length 15.777476
      axis 0.0 0.0 0.0 xyz
   end
   begin
      id 16
      name RightShoulder
      direction -1.000000 0.000000 0.000000
      length 7.190220
      axis 0.0 0.0 90.0 xyz
      dof rx ry rz
   end
   begin
      id 17
      name RightArm
      direction -1.000000 0.000000 0.000000
      length 10.177469
      axis 0.0 0.0 90.0 xyz
      dof rx ry rz
   end
   begin
      id 18
      name RightForeArm
      direction -1.000000 0.000000 0.000000
      length 8.392114
      axis 0.0 0.0 90.0 xyz
      dof ry rz rx
   end
   begin
      id 19
      name RightHand
      direction -1.000000 0.000000 0.000000
      length 0.000000
      axis 0.0 0.0 90.0 xyz
      dof rx ry rz
   end
   begin
      id 20
      name RightHand_dum1
      direction -1.000000 0.000000 0.000000
      length 3.937000
      axis 0.0 0.0 90.0 xyz
   end
   begin
      id 21
      name RightHand_dum2
      direction 0.000000 0.000000 0.000000
      length 0.000000
      axis 0.0 0.0 90.0 xyz
   end
   begin
      id 22
      name RightHandThumb1
      direction 0.000000 0.000000 1.000000
      length 3.937000
      axis 0.0 0.0 90.0 xyz
      dof rx rz ry
   end
   begin
      id 23
      name LeftShoulder
      direction 1.000000 0.000000 0.000000
      length 7.190220
      axis 0.0 0.0 -90.0 xyz
      dof rx ry rz
   end
   begin
      id 24
      name LeftArm
      direction 1.000000 0.000000 0.000000
      length 10.177469
      axis 0.0 0.0 -90.0 xyz
      dof rx ry rz
   end
   begin
      id 25
      name LeftForeArm
      direction 1.000000 0.000000 0.000000
      length 8.392114
      axis 0.0 0.0 -90.0 xyz
      dof ry rz rx
   end
   begin
      id 26
      name LeftHand
      direction 1.000000 0.000000 0.000000
      length 0.000000
      axis 0.0 0.0 -90.0 xyz
      dof rx ry rz
   end
   begin
      id 27
      name LeftHand_dum1
      direction 1.000000 0.000000 0.000000
      length 3.937000
      axis 0.0 0.0 -90.0 xyz
   end
   begin
      id 28
      name LeftHand_dum2
      direction 0.000000 0.000000 0.000000
      length 0.000000
      axis 0.0 0.0 -90.0 xyz
   end
   begin
      id 29
      name LeftHandThumb1
      direction 0.000000 0.000000 1.000000
      length 3.937000
      axis 0.0 0.0 -90.0 xyz
      dof rx rz ry
   end
   begin
      id 30
      name Head
      direction 0.000000 1.000000 0.000000
      length 4.527550
      axis 0.0 0.0 0.0 xyz
      dof rx ry rz
   end
:hierarchy
   begin
      root RightUpLeg_dum LeftUpLeg_dum Spine_dum
      RightUpLeg_dum RightUpLeg
      LeftUpLeg_dum LeftUpLeg
      Spine_dum Spine
      RightUpLeg RightLeg
      RightLeg RightFoot
      RightFoot RightToeBase
      LeftUpLeg LeftLeg
      LeftLeg LeftFoot
      LeftFoot LeftToeBase
      Spine Spine_dum1 Spine_dum2 Spine_dum3
      Spine_dum1 RightShoulder
      Spine_dum2 LeftShoulder
      Spine_dum3 Head
      RightShoulder RightArm
      RightArm RightForeArm
      RightForeArm RightHand
      RightHand RightHand_dum1 RightHand_dum2
      RightHand_dum2 RightHandThumb1
      LeftShoulder LeftArm
      LeftArm LeftForeArm
      LeftForeArm LeftHand
      LeftHand LeftHand_dum1 LeftHand_dum2
      LeftHand_dum2 LeftHandThumb1
   end

# File created by Blade
# Date/Time:  Thu Jan 22 19:34:15 2015
# Frame Rate: 120.000 fps
#------------------------------------------------------
:FULLY-SPECIFIED
:DEGREES
517
root -13.030712 17.892807 -8.401912 32.421183 -30.292290 10.957022
RightUpLeg -113.070827 -22.866667 3.969629
RightLeg 120.384296 -0.000000 -0.000000
RightFoot -46.181257 -0.360729 2.479154
RightToeBase -0.452024 -0.000000 0.000000
LeftUpLeg -8.450163 40.100483 36.206417
LeftLeg 4.700290 -0.000000 -0.000000
LeftFoot -7.150965 3.158256 -60.498695
LeftToeBase 14.729296 -0.000000 -0.000000
Spine -1.918578 0.376205 -1.774233
RightShoulder -11.137313 -8.625728 -15.767502
RightArm 29.672079 -0.690998 65.722254
RightForeArm -7.360806 -0.000000 34.246252
RightHand 14.163562 -0.000000 -0.090560
RightHandThumb1 -24.326973 -0.000000 -32.862282
LeftShoulder -19.470984 -0.544725 21.251906
LeftArm 16.255815 28.521658 -85.548435
LeftForeArm 28.715477 -0.000000 49.220980
LeftHand -2.304192 0.000000 -7.851286
LeftHandThumb1 -26.253704 0.000000 33.147579
Head -29.468820 17.437035 -7.661006
518
root -13.033560 17.780676 -8.434459 32.435999 -30.460497 11.032329
RightUpLeg -113.505646 -22.581654 3.755575
RightLeg 120.827562 -0.000000 -0.000000
RightFoot -46.207430 -0.556657 2.526829
RightToeBase -0.401905 -0.000000 0.000000
LeftUpLeg -8.331355 39.986821 36.416672
LeftLeg 4.906281 -0.000000 -0.000000
LeftFoot -7.367720 2.959480 -60.876218
LeftToeBase 14.802174 -0.000000 -0.000000
Spine -1.788081 0.379496 -2.031257
RightShoulder -11.077052 -8.539765 -15.698709
RightArm 29.685977 -0.802344 66.027471
RightForeArm -7.218613 -0.000000 34.136589
RightHand 14.119988 -0.000000 -0.135784
RightHandThumb1 -24.326973 -0.000000 -32.862282
LeftShoulder -19.445087 -0.524413 21.257576
LeftArm 16.307663 28.621610 -85.714981
LeftForeArm 28.720872 -0.000000 49.408881
LeftHand -2.243739 -0.000000 -7.845963
LeftHandThumb1 -26.253704 0.000000 33.147579
Head -29.570359 17.493272 -7.600456
519
root -13.035790 17.672001 -8.466780 32.475664 -30.606265 11.125913
RightUpLeg -113.983231 -22.325769 3.576163
RightLeg 121.260550 -0.000000 -0.000000
RightFoot -46.221387 -0.726562 2.624047
RightToeBase -0.340748 -0.000000 0.000000
LeftUpLeg -8.249554 39.894144 36.584961
LeftLeg 5.050086 -0.000000 -0.000000
LeftFoot -7.492070 2.814915 -61.075895
LeftToeBase 14.803148 -0.000000 -0.000000
Spine -1.711426 0.371280 -2.288933
RightShoulder -11.022152 -8.426525 -15.608818
RightArm 29.649672 -0.933206 66.310064
RightForeArm -7.218092 -0.000000 34.031292
RightHand 14.055713 -0.000000 0.129495
RightHandThumb1 -24.326973 -0.000000 -32.862282
LeftShoulder -19.397571 -0.675537 21.326363
LeftArm 16.146364 28.736614 -85.995823
LeftForeArm 28.697769 0.000000 49.546689
LeftHand -2.092395 0.000000 -7.846614
LeftHandThumb1 -26.253704 0.000000 33.147579
Head -29.653271 17.641791 -7.567963
520
root -13.038178 17.565207 -8.500242 32.511740 -30.729393 11.238554
RightUpLeg -114.472988 -22.104850 3.397087
RightLeg 121.695987 -0.000000 -0.000000
RightFoot -46.218428 -0.902370 2.694560
RightToeBase -0.250465 -0.000000 0.000000
LeftUpLeg -8.211292 39.882836 36.698731
LeftLeg 5.171711 -0.000000 -0.000000
LeftFoot -7.578783 2.690463 -61.182787
LeftToeBase 14.947494 -0.000000 -0.000000
Spine -1.644087 0.287163 -2.533646
RightShoulder -10.906756 -8.349398 -15.535559
RightArm 29.618212 -1.036207 66.620310
RightForeArm -7.204949 -0.000000 33.971838
RightHand 14.040492 -0.000000 0.202079
RightHandThumb1 -24.326973 -0.000000 -32.862282
LeftShoulder -19.437548 -0.635315 21.297644
LeftArm 16.238354 28.995785 -86.043964
LeftForeArm 28.649197 -0.000000 49.771916
LeftHand -2.239258 -0.000000 -7.679904
LeftHandThumb1 -26.253704 0.000000 33.147579
Head -29.719559 17.750476 -7.545209
521
root -13.040465 17.463262 -8.532949 32.537610 -30.818978 11.387434
RightUpLeg -114.957073 -21.938619 3.217517
RightLeg 122.117873 -0.000000 -0.000000
RightFoot -46.231155 -1.043344 2.793678
RightToeBase -0.222133 -0.000000 0.000000
LeftUpLeg -8.227285 39.853357 36.738671
LeftLeg 5.257426 -0.000000 -0.000000
LeftFoot -7.664795 2.577533 -61.085729
LeftToeBase 15.018124 -0.000000 -0.000000
Spine -1.581075 0.198693 -2.777687
RightShoulder -10.860743 -8.292356 -15.438763
RightArm 29.628912 -1.155427 66.922142
RightForeArm -7.299042 -0.000000 33.903041
RightHand 13.970448 -0.000000 0.189926
RightHandThumb1 -24.326973 -0.000000 -32.862282
LeftShoulder -19.428293 -0.651443 21.282396
LeftArm 16.298440 29.240936 -86.110797
LeftForeArm 28.560082 0.000000 49.928383
LeftHand -2.162592 -0.000000 -7.695912
LeftHandThumb1 -26.253704 0.000000 33.147579
Head -29.802824 17.811795 -7.524943
522
root -13.043289 17.363571 -8.563948 32.549491 -30.907168 11.535253
RightUpLeg -115.419786 -21.782296 3.033604
RightLeg 122.531328 -0.000000 -0.000000
RightFoot -46.247779 -1.142976 2.911313
RightToeBase -0.071304 -0.000000 0.000000
LeftUpLeg -8.208703 39.883095 36.769472
LeftLeg 5.286329 -0.000000 -0.000000
LeftFoot -7.713261 2.413348 -60.871466
LeftToeBase 15.111242 -0.000000 -0.000000
Spine -1.503518 0.130746 -3.011057
RightShoulder -10.806061 -8.152914 -15.360501
RightArm 29.511068 -1.326550 67.207122
RightForeArm -7.280918 0.000000 33.866457
RightHand 13.941763 -0.000000 0.173665
RightHandThumb1 -24.326973 -0.000000 -32.862282
LeftShoulder -19.386010 -0.771930 21.323341
LeftArm 16.223889 29.436904 -86.291726
LeftForeArm 28.647615 -0.000000 50.034876
LeftHand -2.048366 -0.000000 -7.694361
LeftHandThumb1 -26.253704 0.000000 33.147579
Head -29.884045 17.871164 -7.536704
523
root -13.048056 17.266586 -8.595028 32.587531 -31.017510 11.641136
RightUpLeg -115.872816 -21.572653 2.884863
RightLeg 122.920872 -0.000000 -0.000000
RightFoot -46.255051 -1.304661 3.030916
RightToeBase 0.028010 -0.000000 -0.000000
LeftUpLeg -8.139749 39.961727 36.837537
LeftLeg 5.274363 -0.000000 -0.000000
LeftFoot -7.742331 2.229637 -60.747522
LeftToeBase 15.212825 -0.000000 -0.000000
Spine -1.438012 0.101459 -3.209914
RightShoulder -10.758068 -8.134792 -15.251715
RightArm 29.508656 -1.490029 67.445762
RightForeArm -7.295215 -0.000000 33.824793
RightHand 13.987453 -0.000000 0.099321
RightHandThumb1 -24.326973 -0.000000 -32.862282
LeftShoulder -19.330039 -0.883361 21.350972
LeftArm 16.131623 29.635795 -86.447842
LeftForeArm 28.745075 -0.000000 50.199787
LeftHand -1.914995 -0.000000 -7.879528
LeftHandThumb1 -26.253704 0.000000 33.147579
Head -29.949525 17.940170 -7.538520
524
root -13.053366 17.172208 -8.628160 32.645552 -31.080195 11.750633
RightUpLeg -116.339254 -21.415233 2.765311
RightLeg 123.314099 -0.000000 -0.000000
RightFoot -46.270885 -1.430667 3.114033
RightToeBase 0.123727 -0.000000 -0.000000
LeftUpLeg -8.142781 40.001208 36.874559
LeftLeg 5.259460 -0.000000 -0.000000
LeftFoot -7.834655 2.097004 -60.561238
LeftToeBase 15.385042 -0.000000 -0.000000
Spine -1.401106 0.008960 -3.365846
RightShoulder -10.669582 -8.113938 -15.155168
RightArm 29.480639 -1.662706 67.679915
RightForeArm -7.196531 0.000000 33.831205
RightHand 13.904482 -0.000000 -0.057216
RightHandThumb1 -24.326973 -0.000000 -32.862282
LeftShoulder -19.302826 -0.920491 21.365740
LeftArm 16.116501 29.889069 -86.550264
LeftForeArm 28.793292 -0.000000 50.383631
LeftHand -1.976012 -0.000000 -7.894214
LeftHandThumb1 -26.253704 0.000000 33.147579
Head -30.016415 18.046760 -7.603171
525
root -13.059701 17.081405 -8.659615 32.690243 -31.160571 11.857395
RightUpLeg -116.782874 -21.246134 2.641911
RightLeg 123.683128 -0.000000 -0.000000
RightFoot -46.275413 -1.556888 3.235523
RightToeBase 0.292979 -0.000000 -0.000000
LeftUpLeg -8.092457 40.014576 36.917696
LeftLeg 5.196665 -0.000000 -0.000000
LeftFoot -7.940868 2.023625 -60.411916
LeftToeBase 15.468857 -0.000000 -0.000000
Spine -1.340382 -0.028156 -3.524230
RightShoulder -10.644050 -8.069129 -15.041464
RightArm 29.458565 -1.853057 67.902244
RightForeArm -7.181933 -0.000000 33.772495
RightHand 13.947316 -0.000000 -0.013885
RightHandThumb1 -24.326973 -0.000000 -32.862282
LeftShoulder -19.287632 -0.909514 21.323339
LeftArm 16.250326 30.210897 -86.505742
LeftForeArm 28.822716 0.000000 50.551541
LeftHand -1.675446 -0.000000 -8.069845
LeftHandThumb1 -26.253704 0.000000 33.147579
Head -30.112307 18.089568 -7.655760
526
root -13.065553 16.994225 -8.693321 32.760797 -31.244176 11.940779
RightUpLeg -117.224685 -21.078052 2.506712
RightLeg 124.028017 -0.000000 -0.000000
RightFoot -46.254216 -1.616061 3.280018
RightToeBase 0.409557 -0.000000 -0.000000
LeftUpLeg -8.050137 39.988232 36.972984
LeftLeg 5.142366 -0.000000 -0.000000
LeftFoot -8.103834 2.010036 -60.247069
LeftToeBase 15.464192 -0.000000 -0.000000
Spine -1.290624 -0.043755 -3.653454
RightShoulder -10.586739 -8.065886 -14.903582
RightArm 29.434743 -2.031942 68.070459
RightForeArm -7.021802 0.000000 33.768000
RightHand 13.910511 -0.000000 -0.149120
RightHandThumb1 -24.326973 -0.000000 -32.862282
LeftShoulder -19.227552 -1.000547 21.343949
LeftArm 16.187064 30.457357 -86.598371
LeftForeArm 28.968081 -0.000000 50.802000
LeftHand -1.778519 -0.000000 -8.133686
LeftHandThumb1 -26.253704 0.000000 33.147579
Head -30.158009 18.155912 -7.674815
527
root -13.074021 16.907310 -8.723730 32.782611 -31.334830 11.999045
RightUpLeg -117.586001 -20.889001 2.386101
RightLeg 124.358827 -0.000000 -0.000000
RightFoot -46.272062 -1.683823 3.383035
RightToeBase 0.508231 -0.000000 -0.000000
LeftUpLeg -7.910980 39.937643 37.098040
LeftLeg 5.085364 -0.000000 -0.000000
LeftFoot -8.266619 2.001463 -59.967644
LeftToeBase 15.550744 -0.000000 -0.000000
Spine -1.171188 -0.034690 -3.760788
RightShoulder -10.518403 -8.089305 -14.758080
RightArm 29.406448 -2.164036 68.236897
RightForeArm -6.927016 -0.000000 33.809832
RightHand 13.868704 -0.000000 -0.120395
RightHandThumb1 -24.326973 -0.000000 -32.862282
LeftShoulder -19.182800 -0.997354 21.349823
LeftArm 16.256026 30.723152 -86.627860
LeftForeArm 29.150197 -0.000000 51.043892
LeftHand -1.623295 -0.000000 -8.276427
LeftHandThumb1 -26.253704 0.000000 33.147579
Head -30.269159 18.153418 -7.714237
528
root -13.087128 16.821714 -8.755039 32.824475 -31.410844 12.014182
RightUpLeg -117.908964 -20.677685 2.305457
RightLeg 124.671806 -0.000000 -0.000000
RightFoot -46.321815 -1.799628 3.463939
RightToeBase 0.622890 -0.000000 -0.000000
LeftUpLeg -7.773538 39.873772 37.264671
LeftLeg 5.049953 -0.000000 -0.000000
LeftFoot -8.504182 2.000463 -59.679057
LeftToeBase 15.747120 -0.000000 -0.000000
Spine -1.060486 -0.026227 -3.813854
RightShoulder -10.404573 -8.000803 -14.634306
RightArm 29.287799 -2.375892 68.400545
RightForeArm -6.914479 0.000000 33.786743
RightHand 13.722332 -0.000000 -0.469306
RightHandThumb1 -24.326973 -0.000000 -32.862282
LeftShoulder -19.155517 -0.874601 21.329020
LeftArm 16.465517 31.036582 -86.557031
LeftForeArm 29.256108 -0.000000 51.330565
LeftHand -1.642390 -0.000000 -8.450485
LeftHandThumb1 -26.253704 0.000000 33.147579
Head -30.341107 18.212765 -7.791404
